<svg xmlns="http://www.w3.org/2000/svg" width="940" height="540" viewBox="0 0 940 540" font-family="DejaVu Sans" font-size="11.5"><rect width="100%" height="100%" fill="#faf9f6"/><text x="28" y="32" font-size="15.5" font-weight="bold">HÌNH 7 — Vì sao tấm Nu ĐẶC không phay mặt mộng trực tiếp được</text><text x="28" y="52" fill="#55524b">Thân hộp thẳng thớ, thớ chạy dọc cạnh 350 → mặt mộng thân đứng yên. Nu không có hướng thớ, nở đều mọi phương, kéo mặt mộng nắp trượt dọc trục.</text><text x="28" y="68" fill="#55524b">Khe dọc trục 1,0 mm đóng hoàn toàn ở ΔMC 4,1 % — đúng bằng chênh lệch xưởng ↔ mùa nồm.</text><rect x="96" y="92" width="420" height="178" fill="none" stroke="#b8b5ae" stroke-width="1" stroke-dasharray="5,4"/><text x="102" y="107" font-size="11" font-weight="bold" fill="#55524b">A · Khe giữa mắt mộng 1 và 2  TL 5,5:1</text><rect x="96" y="286" width="420" height="214" fill="none" stroke="#b8b5ae" stroke-width="1" stroke-dasharray="5,4"/><text x="102" y="301" font-size="11" font-weight="bold" fill="#55524b">B · Cùng chỗ đó sau khi hút ẩm  ΔMC 4 %</text><rect x="215.2" y="147.0" width="88.0" height="99.0" fill="#7a4f2c" stroke="#2a241c" stroke-width="1.1" /><rect x="308.8" y="147.0" width="88.0" height="99.0" fill="#c8873f" stroke="#2a241c" stroke-width="1.1" /><line x1="303.2" y1="134.0" x2="308.8" y2="134.0" stroke="#2f7a3c" stroke-width="0.8"/><line x1="303.2" y1="131.0" x2="303.2" y2="137.0" stroke="#2f7a3c" stroke-width="0.8"/><line x1="308.8" y1="131.0" x2="308.8" y2="137.0" stroke="#2f7a3c" stroke-width="0.8"/><text x="306.0" y="130.0" text-anchor="middle" font-size="11" fill="#2f7a3c">khe 1.00</text><text x="259.25" y="264" text-anchor="middle" font-size="9.5" fill="#55524b">mắt mộng THÂN</text><text x="352.75" y="264" text-anchor="middle" font-size="9.5" fill="#55524b">mắt mộng NẮP</text><text x="306.0" y="120" text-anchor="middle" font-size="11.5" font-weight="bold" fill="#2f7a3c">Lúc làm — 9 % MC</text><rect x="215.2" y="353.0" width="88.0" height="99.0" fill="#7a4f2c" stroke="#2a241c" stroke-width="1.1" /><rect x="303.3" y="353.0" width="88.0" height="99.0" fill="#c8873f" stroke="#2a241c" stroke-width="1.1" /><line x1="303.2" y1="340.0" x2="303.3" y2="340.0" stroke="#a8332a" stroke-width="0.8"/><line x1="303.2" y1="337.0" x2="303.2" y2="343.0" stroke="#a8332a" stroke-width="0.8"/><line x1="303.3" y1="337.0" x2="303.3" y2="343.0" stroke="#a8332a" stroke-width="0.8"/><text x="303.3" y="336.0" text-anchor="middle" font-size="11" fill="#a8332a">khe 0.01</text><text x="259.25" y="470" text-anchor="middle" font-size="9.5" fill="#55524b">mắt mộng THÂN</text><text x="347.32920000000007" y="470" text-anchor="middle" font-size="9.5" fill="#55524b">mắt mộng NẮP</text><text x="306.0" y="324" text-anchor="middle" font-size="11.5" font-weight="bold" fill="#a8332a">Mùa nồm — 13 % MC</text><text x="306" y="492" text-anchor="middle" font-size="11.5" font-weight="bold" fill="#a8332a">nắp Nu ĐẶC: khe đóng — bản lề kẹt cứng</text><rect x="552" y="92" width="360" height="398" fill="none" stroke="#b8b5ae" stroke-width="1" stroke-dasharray="5,4"/><text x="558" y="107" font-size="11" font-weight="bold" fill="#55524b">C · Khe nhỏ nhất còn lại theo ΔMC</text><rect x="588" y="140" width="300" height="250" fill="#fdf6f4" stroke="none"/><rect x="588" y="306.21621621621625" width="300" height="83.8" fill="#f4dcd8"/><line x1="588" y1="306.2" x2="888" y2="306.2" stroke="#a8332a" stroke-width="1.4"/><text x="884" y="320.21621621621625" text-anchor="end" font-size="9.5" fill="#a8332a">khe = 0 · mắt mộng chạm nhau</text><line x1="584" y1="306.2" x2="588" y2="306.2" stroke="#55524b" stroke-width="0.8"/><text x="580" y="309.71621621621625" text-anchor="end" font-size="9.5" fill="#55524b">0.0</text><line x1="584" y1="238.6" x2="588" y2="238.6" stroke="#55524b" stroke-width="0.8"/><text x="580" y="242.14864864864865" text-anchor="end" font-size="9.5" fill="#55524b">0.5</text><line x1="584" y1="171.1" x2="588" y2="171.1" stroke="#55524b" stroke-width="0.8"/><text x="580" y="174.58108108108107" text-anchor="end" font-size="9.5" fill="#55524b">1.0</text><line x1="588.0" y1="390" x2="588.0" y2="394" stroke="#55524b" stroke-width="0.8"/><text x="588.0" y="406" text-anchor="middle" font-size="9.5" fill="#55524b">0</text><line x1="638.0" y1="390" x2="638.0" y2="394" stroke="#55524b" stroke-width="0.8"/><text x="638.0" y="406" text-anchor="middle" font-size="9.5" fill="#55524b">1</text><line x1="688.0" y1="390" x2="688.0" y2="394" stroke="#55524b" stroke-width="0.8"/><text x="688.0" y="406" text-anchor="middle" font-size="9.5" fill="#55524b">2</text><line x1="738.0" y1="390" x2="738.0" y2="394" stroke="#55524b" stroke-width="0.8"/><text x="738.0" y="406" text-anchor="middle" font-size="9.5" fill="#55524b">3</text><line x1="788.0" y1="390" x2="788.0" y2="394" stroke="#55524b" stroke-width="0.8"/><text x="788.0" y="406" text-anchor="middle" font-size="9.5" fill="#55524b">4</text><line x1="838.0" y1="390" x2="838.0" y2="394" stroke="#55524b" stroke-width="0.8"/><text x="838.0" y="406" text-anchor="middle" font-size="9.5" fill="#55524b">5</text><line x1="888.0" y1="390" x2="888.0" y2="394" stroke="#55524b" stroke-width="0.8"/><text x="888.0" y="406" text-anchor="middle" font-size="9.5" fill="#55524b">6</text><text x="738.0" y="424" text-anchor="middle" font-size="10" fill="#55524b">ΔMC (%)</text><text x="592" y="132" font-size="10" fill="#55524b">khe còn lại (mm)</text><polyline points="588.0,171.1 600.5,179.4 613.0,187.7 625.5,196.1 638.0,204.4 650.5,212.7 663.0,221.0 675.5,229.4 688.0,237.7 700.5,246.0 713.0,254.3 725.5,262.6 738.0,271.0 750.5,279.3 763.0,287.6 775.5,295.9 788.0,304.3 800.5,312.6 813.0,320.9 825.5,329.2 838.0,337.6 850.5,345.9 863.0,354.2 875.5,362.5 888.0,370.9" fill="none" stroke="#a8332a" stroke-width="2.4"/><text x="892" y="374.86486486486785" font-size="10" font-weight="bold" fill="#a8332a" text-anchor="end">Nu ĐẶC</text><polyline points="588.0,171.1 600.5,173.0 613.0,174.9 625.5,176.8 638.0,178.6 650.5,180.5 663.0,182.4 675.5,184.3 688.0,186.2 700.5,188.1 713.0,190.0 725.5,191.9 738.0,193.8 750.5,195.7 763.0,197.6 775.5,199.5 788.0,201.4 800.5,203.2 813.0,205.1 825.5,207.0 838.0,208.9 850.5,210.8 863.0,212.7 875.5,214.6 888.0,216.5" fill="none" stroke="#c07a12" stroke-width="2.4"/><text x="892" y="220.4864864864882" font-size="10" font-weight="bold" fill="#c07a12" text-anchor="end">lõi ổn định</text><polyline points="588.0,171.1 600.5,171.5 613.0,171.8 625.5,172.2 638.0,172.6 650.5,173.0 663.0,173.4 675.5,173.7 688.0,174.1 700.5,174.5 713.0,174.9 725.5,175.2 738.0,175.6 750.5,176.0 763.0,176.4 775.5,176.8 788.0,177.1 800.5,177.5 813.0,177.9 825.5,178.3 838.0,178.6 850.5,179.0 863.0,179.4 875.5,179.8 888.0,180.2" fill="none" stroke="#2f7a3c" stroke-width="2.4"/><text x="892" y="174.1621621621602" font-size="10" font-weight="bold" fill="#2f7a3c" text-anchor="end">khung gỗ đặc</text><line x1="790.9" y1="140" x2="790.9" y2="306.2" stroke="#a8332a" stroke-width="1.2" stroke-dasharray="4,3"/><text x="784.922077922078" y="156" text-anchor="end" font-size="10" font-weight="bold" fill="#a8332a">ΔMC 4.1 %</text><text x="784.922077922078" y="170" text-anchor="end" font-size="9.5" fill="#a8332a">xưởng 9 % → nồm 13 %</text></svg>