<svg xmlns="http://www.w3.org/2000/svg" width="1587" height="1123" viewBox="0 0 1587 1123" font-family="DejaVu Sans" font-size="10"><rect width="100%" height="100%" fill="#ffffff"/><rect x="30" y="30" width="1527" height="1063" fill="none" stroke="#1a1a1a" stroke-width="1.8"/><text x="990" y="856" font-size="10" font-weight="bold" fill="#1a1a1a">GHI CHÚ</text><text x="990" y="873" font-size="9.5" fill="#1a1a1a">1. Tấm Nu THẢ trong rãnh — chỉ dán/chốt 1 điểm ở đúng tâm tấm. Dán quanh rãnh là tấm nứt.</text><text x="990" y="888" font-size="9.5" fill="#1a1a1a">2. Tấm phải được ổn định về 11 % MC TRƯỚC khi lắp.</text><text x="990" y="903" font-size="9.5" fill="#1a1a1a">3. Khe ráp giữa hai cánh 1.5 ±0,3 — đặc tính nhìn thấy, không có sống khóa phủ.</text><rect x="46" y="74" width="470" height="760" fill="none" stroke="#c9c5bd" stroke-width="0.7" stroke-dasharray="6,4"/><text x="54" y="92" font-size="13" font-weight="bold" fill="#1a1a1a">MẶT BẰNG MỘT CÁNH — nhìn từ trên</text><text x="54" y="107" font-size="10" fill="#55524b">cánh trái; cánh phải đối xứng</text><text x="508" y="92" text-anchor="end" font-size="11" font-weight="bold" fill="#55524b">TL 1:2</text><rect x="120.00" y="128.58" width="355.75" height="661.42" fill="#e6d9c4" stroke="#1a1a1a" stroke-width="1.8" /><rect x="184.25" y="185.28" width="227.24" height="548.03" fill="#f6efe2" stroke="#1a1a1a" stroke-width="1.1" /><rect x="187.09" y="188.11" width="221.57" height="542.36" fill="#d9b877" stroke="#1a1a1a" stroke-width="1.1" /><path d="M 167.24,750.31 L 428.50,750.31 L 428.50,168.27 L 167.24,168.27 L 167.24,750.31" fill="none" stroke="#8a857c" stroke-width="0.7" stroke-dasharray="7,4"/><rect x="120.00" y="587.80" width="19.28" height="83.15" fill="#ffffff" stroke="#1a1a1a" stroke-width="1.1" /><rect x="120.00" y="417.72" width="19.28" height="83.15" fill="#ffffff" stroke="#1a1a1a" stroke-width="1.1" /><rect x="120.00" y="247.64" width="19.28" height="83.15" fill="#ffffff" stroke="#1a1a1a" stroke-width="1.1" /><path d="M 120.00,820.24 L 120.00,98.35" fill="none" stroke="#3a5f8a" stroke-width="0.7" stroke-dasharray="11,3,2,3"/><path d="M 331.65,784.33 L 369.45,784.33 L 369.45,774.88 L 331.65,774.88 L 331.65,784.33" fill="none" stroke="#8a857c" stroke-width="0.7" stroke-dasharray="7,4"/><path d="M 331.65,143.70 L 369.45,143.70 L 369.45,134.25 L 331.65,134.25 L 331.65,143.70" fill="none" stroke="#8a857c" stroke-width="0.7" stroke-dasharray="7,4"/><path d="M 373.23,784.33 L 411.02,784.33 L 411.02,774.88 L 373.23,774.88 L 373.23,784.33" fill="none" stroke="#8a857c" stroke-width="0.7" stroke-dasharray="7,4"/><path d="M 373.23,143.70 L 411.02,143.70 L 411.02,134.25 L 373.23,134.25 L 373.23,143.70" fill="none" stroke="#8a857c" stroke-width="0.7" stroke-dasharray="7,4"/><line x1="120.0" y1="790.0" x2="120.0" y2="823.0" stroke="#55524b" stroke-width="0.7"/><line x1="184.3" y1="790.0" x2="184.3" y2="823.0" stroke="#55524b" stroke-width="0.7"/><line x1="120.0" y1="818.0" x2="184.3" y2="818.0" stroke="#55524b" stroke-width="0.7"/><polygon points="120.0,818.0 126.7,815.9 126.7,820.1" fill="#55524b"/><polygon points="184.3,818.0 177.6,820.1 177.6,815.9" fill="#55524b"/><text x="152.125988" y="813.0" text-anchor="middle" font-size="10.5" fill="#55524b">34</text><line x1="184.3" y1="790.0" x2="184.3" y2="823.0" stroke="#55524b" stroke-width="0.7"/><line x1="411.5" y1="790.0" x2="411.5" y2="823.0" stroke="#55524b" stroke-width="0.7"/><line x1="184.3" y1="818.0" x2="411.5" y2="818.0" stroke="#55524b" stroke-width="0.7"/><polygon points="184.3,818.0 190.9,815.9 190.9,820.1" fill="#55524b"/><polygon points="411.5,818.0 404.8,820.1 404.8,815.9" fill="#55524b"/><text x="297.8740365" y="813.0" text-anchor="middle" font-size="10.5" fill="#55524b">120.25</text><line x1="411.5" y1="790.0" x2="411.5" y2="823.0" stroke="#55524b" stroke-width="0.7"/><line x1="475.7" y1="790.0" x2="475.7" y2="823.0" stroke="#55524b" stroke-width="0.7"/><line x1="411.5" y1="818.0" x2="475.7" y2="818.0" stroke="#55524b" stroke-width="0.7"/><polygon points="411.5,818.0 418.2,815.9 418.2,820.1" fill="#55524b"/><polygon points="475.7,818.0 469.1,820.1 469.1,815.9" fill="#55524b"/><text x="443.62208499999997" y="813.0" text-anchor="middle" font-size="10.5" fill="#55524b">34</text><line x1="120.0" y1="790.0" x2="120.0" y2="851.0" stroke="#55524b" stroke-width="0.7"/><line x1="475.7" y1="790.0" x2="475.7" y2="851.0" stroke="#55524b" stroke-width="0.7"/><line x1="120.0" y1="846.0" x2="475.7" y2="846.0" stroke="#55524b" stroke-width="0.7"/><polygon points="120.0,846.0 126.7,843.9 126.7,848.1" fill="#55524b"/><polygon points="475.7,846.0 469.1,848.1 469.1,843.9" fill="#55524b"/><text x="297.8740365" y="841.0" text-anchor="middle" font-size="10.5" fill="#55524b">188.25</text><line x1="120.0" y1="790.0" x2="87.0" y2="790.0" stroke="#55524b" stroke-width="0.7"/><line x1="120.0" y1="733.3" x2="87.0" y2="733.3" stroke="#55524b" stroke-width="0.7"/><line x1="92.0" y1="790.0" x2="92.0" y2="733.3" stroke="#55524b" stroke-width="0.7"/><polygon points="92.0,790.0 89.9,783.3 94.1,783.3" fill="#55524b"/><polygon points="92.0,733.3 94.1,740.0 89.9,740.0" fill="#55524b"/><g transform="translate(87.0,761.7) rotate(-90)"><text x="0" y="0" text-anchor="middle" font-size="10.5" fill="#55524b">30</text></g><line x1="120.0" y1="733.3" x2="87.0" y2="733.3" stroke="#55524b" stroke-width="0.7"/><line x1="120.0" y1="185.3" x2="87.0" y2="185.3" stroke="#55524b" stroke-width="0.7"/><line x1="92.0" y1="733.3" x2="92.0" y2="185.3" stroke="#55524b" stroke-width="0.7"/><polygon points="92.0,733.3 89.9,726.6 94.1,726.6" fill="#55524b"/><polygon points="92.0,185.3 94.1,192.0 89.9,192.0" fill="#55524b"/><g transform="translate(87.0,459.3) rotate(-90)"><text x="0" y="0" text-anchor="middle" font-size="10.5" fill="#55524b">290</text></g><line x1="120.0" y1="790.0" x2="59.0" y2="790.0" stroke="#55524b" stroke-width="0.7"/><line x1="120.0" y1="128.6" x2="59.0" y2="128.6" stroke="#55524b" stroke-width="0.7"/><line x1="64.0" y1="790.0" x2="64.0" y2="128.6" stroke="#55524b" stroke-width="0.7"/><polygon points="64.0,790.0 61.9,783.3 66.1,783.3" fill="#55524b"/><polygon points="64.0,128.6 66.1,135.3 61.9,135.3" fill="#55524b"/><g transform="translate(59.0,459.3) rotate(-90)"><text x="0" y="0" text-anchor="middle" font-size="10.5" fill="#55524b">350</text></g><polyline points="315.7,379.9 458.0,246.0 470.0,246.0" fill="none" stroke="#55524b" stroke-width="0.7"/><circle cx="315.7" cy="379.9" r="2.4" fill="#55524b"/><text x="452" y="250" text-anchor="start" font-size="10" fill="#55524b">tấm Nu nâng, lộ ra 117.25 × 287</text><polyline points="175.7,604.8 458.0,636.0 470.0,636.0" fill="none" stroke="#55524b" stroke-width="0.7"/><circle cx="175.7" cy="604.8" r="2.4" fill="#55524b"/><text x="452" y="640" text-anchor="start" font-size="10" fill="#55524b">rãnh ôm tấm 9 × 7</text><rect x="560" y="74" width="986" height="230" fill="none" stroke="#c9c5bd" stroke-width="0.7" stroke-dasharray="6,4"/><text x="568" y="92" font-size="13" font-weight="bold" fill="#1a1a1a">MẶT CẮT NGANG CÁNH NẮP</text><text x="1538" y="92" text-anchor="end" font-size="11" font-weight="bold" fill="#55524b">TL 1:1</text><rect x="600.00" y="153.31" width="711.50" height="56.69" fill="#e6d9c4" stroke="#1a1a1a" stroke-width="1.1" /><rect x="694.49" y="164.65" width="522.52" height="26.46" fill="#d9b877" stroke="#1a1a1a" stroke-width="1.1" /><rect x="734.17" y="153.31" width="443.15" height="11.34" fill="#d9b877" stroke="#1a1a1a" stroke-width="1.1" /><rect x="728.50" y="191.10" width="454.49" height="18.90" fill="#ffffff" stroke="#8a857c" stroke-width="0.7" /><circle cx="600.00" cy="181.65" r="19.28" fill="#ffffff" stroke="#1a1a1a" stroke-width="1.1"/><line x1="1311.5" y1="210.0" x2="1342.5" y2="210.0" stroke="#55524b" stroke-width="0.7"/><line x1="1311.5" y1="153.3" x2="1342.5" y2="153.3" stroke="#55524b" stroke-width="0.7"/><line x1="1337.5" y1="210.0" x2="1337.5" y2="153.3" stroke="#55524b" stroke-width="0.7"/><polygon points="1337.5,210.0 1335.4,203.3 1339.6,203.3" fill="#55524b"/><polygon points="1337.5,153.3 1339.6,160.0 1335.4,160.0" fill="#55524b"/><g transform="translate(1332.5,181.7) rotate(-90)"><text x="0" y="0" text-anchor="middle" font-size="10.5" fill="#55524b">15</text></g><line x1="600.0" y1="210.0" x2="600.0" y2="245.0" stroke="#55524b" stroke-width="0.7"/><line x1="1311.5" y1="210.0" x2="1311.5" y2="245.0" stroke="#55524b" stroke-width="0.7"/><line x1="600.0" y1="240.0" x2="1311.5" y2="240.0" stroke="#55524b" stroke-width="0.7"/><polygon points="600.0,240.0 606.7,237.9 606.7,242.1" fill="#55524b"/><polygon points="1311.5,240.0 1304.8,242.1 1304.8,237.9" fill="#55524b"/><text x="955.748073" y="235.0" text-anchor="middle" font-size="10.5" fill="#55524b">188.25</text><polyline points="955.7,191.1 1186.0,258.0 1198.0,258.0" fill="none" stroke="#55524b" stroke-width="0.7"/><circle cx="955.7" cy="191.1" r="2.4" fill="#55524b"/><text x="1180" y="262" text-anchor="start" font-size="10" fill="#55524b">khay bỏ bài — lòng lõm sâu 5.0 hình thành miễn phí</text><rect x="560" y="330" width="480" height="380" fill="none" stroke="#c9c5bd" stroke-width="0.7" stroke-dasharray="6,4"/><text x="568" y="348" font-size="13" font-weight="bold" fill="#1a1a1a">CT 1 — MỘNG–RÃNH &amp; TẤM NÂNG</text><text x="1032" y="348" text-anchor="end" font-size="11" font-weight="bold" fill="#55524b">TL 4:1</text><rect x="563.46" y="383.23" width="196.54" height="226.77" fill="#e6d9c4" stroke="#1a1a1a" stroke-width="1.1" /><rect x="623.94" y="428.58" width="136.06" height="105.83" fill="#ffffff" stroke="#1a1a1a" stroke-width="0.7" /><rect x="669.29" y="428.58" width="226.77" height="105.83" fill="#d9b877" stroke="#1a1a1a" stroke-width="1.1" /><rect x="782.68" y="383.23" width="113.39" height="45.35" fill="#d9b877" stroke="#1a1a1a" stroke-width="1.1" /><line x1="623.9" y1="383.2" x2="623.9" y2="352.2" stroke="#55524b" stroke-width="0.7"/><line x1="760.0" y1="383.2" x2="760.0" y2="352.2" stroke="#55524b" stroke-width="0.7"/><line x1="623.9" y1="357.2" x2="760.0" y2="357.2" stroke="#55524b" stroke-width="0.7"/><polygon points="623.9,357.2 630.6,355.2 630.6,359.3" fill="#55524b"/><polygon points="760.0,357.2 753.3,359.3 753.3,355.2" fill="#55524b"/><text x="691.968496" y="352.22832" text-anchor="middle" font-size="10.5" fill="#55524b">9</text><line x1="669.3" y1="610.0" x2="669.3" y2="641.0" stroke="#55524b" stroke-width="0.7"/><line x1="760.0" y1="610.0" x2="760.0" y2="641.0" stroke="#55524b" stroke-width="0.7"/><line x1="669.3" y1="636.0" x2="760.0" y2="636.0" stroke="#55524b" stroke-width="0.7"/><polygon points="669.3,636.0 676.0,633.9 676.0,638.1" fill="#55524b"/><polygon points="760.0,636.0 753.3,638.1 753.3,633.9" fill="#55524b"/><text x="714.645664" y="631.0" text-anchor="middle" font-size="10.5" fill="#55524b">6</text><line x1="760.0" y1="383.2" x2="760.0" y2="326.2" stroke="#55524b" stroke-width="0.7"/><line x1="782.7" y1="383.2" x2="782.7" y2="326.2" stroke="#55524b" stroke-width="0.7"/><line x1="760.0" y1="331.2" x2="782.7" y2="331.2" stroke="#55524b" stroke-width="0.7"/><line x1="749.0" y1="331.2" x2="793.7" y2="331.2" stroke="#55524b" stroke-width="0.7"/><polygon points="760.0,331.2 753.3,333.3 753.3,329.2" fill="#55524b"/><polygon points="782.7,331.2 789.4,329.2 789.4,333.3" fill="#55524b"/><text x="771.3385840000001" y="326.22832" text-anchor="middle" font-size="10.5" fill="#55524b">1.5</text><line x1="896.1" y1="534.4" x2="927.1" y2="534.4" stroke="#55524b" stroke-width="0.7"/><line x1="896.1" y1="428.6" x2="927.1" y2="428.6" stroke="#55524b" stroke-width="0.7"/><line x1="922.1" y1="534.4" x2="922.1" y2="428.6" stroke="#55524b" stroke-width="0.7"/><polygon points="922.1,534.4 920.0,527.7 924.1,527.7" fill="#55524b"/><polygon points="922.1,428.6 924.1,435.3 920.0,435.3" fill="#55524b"/><g transform="translate(917.1,481.5) rotate(-90)"><text x="0" y="0" text-anchor="middle" font-size="10.5" fill="#55524b">7</text></g><line x1="896.1" y1="428.6" x2="927.1" y2="428.6" stroke="#55524b" stroke-width="0.7"/><line x1="896.1" y1="383.2" x2="927.1" y2="383.2" stroke="#55524b" stroke-width="0.7"/><line x1="922.1" y1="428.6" x2="922.1" y2="383.2" stroke="#55524b" stroke-width="0.7"/><polygon points="922.1,428.6 920.0,421.9 924.1,421.9" fill="#55524b"/><polygon points="922.1,383.2 924.1,389.9 920.0,389.9" fill="#55524b"/><g transform="translate(917.1,405.9) rotate(-90)"><text x="0" y="0" text-anchor="middle" font-size="10.5" fill="#55524b">3</text></g><line x1="563.5" y1="610.0" x2="532.5" y2="610.0" stroke="#55524b" stroke-width="0.7"/><line x1="563.5" y1="534.4" x2="532.5" y2="534.4" stroke="#55524b" stroke-width="0.7"/><line x1="537.5" y1="610.0" x2="537.5" y2="534.4" stroke="#55524b" stroke-width="0.7"/><polygon points="537.5,610.0 535.4,603.3 539.5,603.3" fill="#55524b"/><polygon points="537.5,534.4 539.5,541.1 535.4,541.1" fill="#55524b"/><g transform="translate(532.5,572.2) rotate(-90)"><text x="0" y="0" text-anchor="middle" font-size="10.5" fill="#55524b">5</text></g><polyline points="646.6,481.5 626.0,686.0 638.0,686.0" fill="none" stroke="#55524b" stroke-width="0.7"/><circle cx="646.6" cy="481.5" r="2.4" fill="#55524b"/><text x="620" y="690" text-anchor="start" font-size="10" fill="#55524b">thả 3 mm mỗi phía — KHÔNG keo</text><polyline points="771.3,383.2 626.0,356.0 638.0,356.0" fill="none" stroke="#55524b" stroke-width="0.7"/><circle cx="771.3" cy="383.2" r="2.4" fill="#55524b"/><text x="620" y="360" text-anchor="start" font-size="10" fill="#55524b">khe 1.5 quanh lòng tấm</text><text x="1070" y="348" font-size="11" font-weight="bold" fill="#1a1a1a">CHI TIẾT CÁNH NẮP</text><rect x="1070" y="358" width="480" height="22" fill="#ece8e0" stroke="#b8b5ae" stroke-width="0.7"/><text x="1075" y="375" font-size="9.5" font-weight="bold" fill="#1a1a1a">CHI TIẾT</text><text x="1197" y="375" font-size="9.5" font-weight="bold" fill="#1a1a1a">KÍCH THƯỚC</text><text x="1355" y="375" font-size="9.5" font-weight="bold" fill="#1a1a1a">GHI CHÚ</text><text x="1075" y="397" text-anchor="start" font-size="9.5" fill="#1a1a1a">Đố dọc × 2</text><text x="1344" y="397" text-anchor="end" font-size="9.5" fill="#1a1a1a">350 × 34 × 15</text><text x="1355" y="397" text-anchor="start" font-size="9.5" fill="#1a1a1a">thẳng thớ dọc 350</text><line x1="1070" y1="402.0" x2="1550" y2="402.0" stroke="#dcd8d0" stroke-width="0.7"/><rect x="1070" y="402" width="480" height="22" fill="#f4f2ee"/><text x="1075" y="419" text-anchor="start" font-size="9.5" fill="#1a1a1a">Đố ngang × 2</text><text x="1344" y="419" text-anchor="end" font-size="9.5" fill="#1a1a1a">132.2 × 30 × 15</text><text x="1355" y="419" text-anchor="start" font-size="9.5" fill="#1a1a1a">kể cả mộng hai đầu</text><line x1="1070" y1="424.0" x2="1550" y2="424.0" stroke="#dcd8d0" stroke-width="0.7"/><text x="1075" y="441" text-anchor="start" font-size="9.5" fill="#1a1a1a">Tấm Nu nâng</text><text x="1344" y="441" text-anchor="end" font-size="9.5" fill="#1a1a1a">302 × 132.25 × 10</text><text x="1355" y="441" text-anchor="start" font-size="9.5" fill="#1a1a1a">bậc 3 × 8 quanh mép trên</text><line x1="1070" y1="446.0" x2="1550" y2="446.0" stroke="#dcd8d0" stroke-width="0.7"/><rect x="1070" y="446" width="480" height="22" fill="#f4f2ee"/><text x="1075" y="463" text-anchor="start" font-size="9.5" fill="#1a1a1a">Rãnh ôm tấm</text><text x="1344" y="463" text-anchor="end" font-size="9.5" fill="#1a1a1a">9 sâu × 7 rộng</text><text x="1355" y="463" text-anchor="start" font-size="9.5" fill="#1a1a1a">giữa bề dày, cách mặt trên 3</text><line x1="1070" y1="468.0" x2="1550" y2="468.0" stroke="#dcd8d0" stroke-width="0.7"/><text x="1075" y="485" text-anchor="start" font-size="9.5" fill="#1a1a1a">Mộng khung</text><text x="1344" y="485" text-anchor="end" font-size="9.5" fill="#1a1a1a">8 mộng</text><text x="1355" y="485" text-anchor="start" font-size="9.5" fill="#1a1a1a">epoxy + chốt draw-bore Ø5</text><line x1="1070" y1="490.0" x2="1550" y2="490.0" stroke="#dcd8d0" stroke-width="0.7"/><rect x="1070" y="490" width="480" height="22" fill="#f4f2ee"/><text x="1075" y="507" text-anchor="start" font-size="9.5" fill="#1a1a1a">Mắt mộng bản lề</text><text x="1344" y="507" text-anchor="end" font-size="9.5" fill="#1a1a1a">3 mắt × 44</text><text x="1355" y="507" text-anchor="start" font-size="9.5" fill="#1a1a1a">phay thẳng từ đố dọc, ống Ø10.2</text><line x1="1070" y1="512.0" x2="1550" y2="512.0" stroke="#dcd8d0" stroke-width="0.7"/><text x="1075" y="529" text-anchor="start" font-size="9.5" fill="#1a1a1a">Hốc nam châm</text><text x="1344" y="529" text-anchor="end" font-size="9.5" fill="#1a1a1a">4/cánh</text><text x="1544" y="529" text-anchor="end" font-size="9.5" fill="#1a1a1a">20.2 × 5.2 × 5.2 ở mặt dưới</text><line x1="1070" y1="534.0" x2="1550" y2="534.0" stroke="#dcd8d0" stroke-width="0.7"/><rect x="1070" y="358" width="480" height="176" fill="none" stroke="#b8b5ae" stroke-width="0.7"/><line x1="1192.0" y1="358" x2="1192.0" y2="534" stroke="#dcd8d0" stroke-width="0.7"/><line x1="1350.0" y1="358" x2="1350.0" y2="534" stroke="#dcd8d0" stroke-width="0.7"/><text x="1070" y="560" font-size="11" font-weight="bold" fill="#1a1a1a">GỖ NỞ — vì sao có khe quanh lòng tấm</text><rect x="1070" y="570" width="476" height="20" fill="#ece8e0" stroke="#b8b5ae" stroke-width="0.7"/><text x="1075" y="585" font-size="9.5" font-weight="bold" fill="#1a1a1a">TRƯỜNG HỢP</text><text x="1271" y="585" font-size="9.5" font-weight="bold" fill="#1a1a1a">DỊCH/PHÍA</text><text x="1367" y="585" font-size="9.5" font-weight="bold" fill="#1a1a1a">KHE MIN</text><text x="1459" y="585" font-size="9.5" font-weight="bold" fill="#1a1a1a">KHE MAX</text><text x="1075" y="605" text-anchor="start" font-size="9.5" fill="#1a1a1a">đã ổn định 11 %, ±2 %</text><text x="1356" y="605" text-anchor="end" font-size="9.5" fill="#1a1a1a">0.66</text><text x="1448" y="605" text-anchor="end" font-size="9.5" fill="#1a1a1a">0.84</text><text x="1540" y="605" text-anchor="end" font-size="9.5" fill="#1a1a1a">2.16</text><line x1="1070" y1="610.0" x2="1546" y2="610.0" stroke="#dcd8d0" stroke-width="0.7"/><rect x="1070" y="610" width="476" height="20" fill="#f4f2ee"/><text x="1075" y="625" text-anchor="start" font-size="9.5" fill="#1a1a1a">lắp thẳng ở 9 %, +4 %</text><text x="1356" y="625" text-anchor="end" font-size="9.5" fill="#1a1a1a">1.33</text><text x="1448" y="625" text-anchor="end" font-size="9.5" fill="#1a1a1a">0.17</text><text x="1540" y="625" text-anchor="end" font-size="9.5" fill="#1a1a1a">2.83</text><line x1="1070" y1="630.0" x2="1546" y2="630.0" stroke="#dcd8d0" stroke-width="0.7"/><rect x="1070" y="570" width="476" height="60" fill="none" stroke="#b8b5ae" stroke-width="0.7"/><line x1="1266.0" y1="570" x2="1266.0" y2="630" stroke="#dcd8d0" stroke-width="0.7"/><line x1="1362.0" y1="570" x2="1362.0" y2="630" stroke="#dcd8d0" stroke-width="0.7"/><line x1="1454.0" y1="570" x2="1454.0" y2="630" stroke="#dcd8d0" stroke-width="0.7"/><rect x="990" y="919" width="567" height="174" fill="#fff" stroke="#1a1a1a" stroke-width="1.1"/><line x1="990" y1="941" x2="1557" y2="941" stroke="#1a1a1a" stroke-width="0.7"/><text x="998" y="935" font-size="11" font-weight="bold" fill="#1a1a1a">HỘP MAHJONG 152 QUÂN — BURLORA</text><text x="998" y="963" font-size="15" font-weight="bold" fill="#1a1a1a">CÁNH NẮP</text><line x1="990" y1="973" x2="1557" y2="973" stroke="#1a1a1a" stroke-width="0.7"/><text x="998.0" y="986.0" font-size="7.5" fill="#55524b">MÃ</text><text x="998.0" y="1000.0" font-size="11" font-weight="bold" fill="#1a1a1a">HD-01</text><text x="1187.0" y="986.0" font-size="7.5" fill="#55524b">TỈ LỆ</text><text x="1187.0" y="1000.0" font-size="11" font-weight="bold" fill="#1a1a1a">1:2 / 1:1 / 4:1</text><line x1="1179.0" y1="973" x2="1179.0" y2="1093" stroke="#dcd8d0" stroke-width="0.7"/><text x="1376.0" y="986.0" font-size="7.5" fill="#55524b">KHỐI LƯỢNG</text><text x="1376.0" y="1000.0" font-size="11" font-weight="bold" fill="#1a1a1a">0.76 kg/cánh</text><line x1="1368.0" y1="973" x2="1368.0" y2="1093" stroke="#dcd8d0" stroke-width="0.7"/><text x="998.0" y="1046.0" font-size="7.5" fill="#55524b">VẬT LIỆU</text><text x="998.0" y="1060.0" font-size="11" font-weight="bold" fill="#1a1a1a">cocobolo + Nu gõ đỏ</text><text x="1187.0" y="1046.0" font-size="7.5" fill="#55524b">REV</text><text x="1187.0" y="1060.0" font-size="11" font-weight="bold" fill="#1a1a1a">C3</text><line x1="1179.0" y1="973" x2="1179.0" y2="1093" stroke="#dcd8d0" stroke-width="0.7"/><text x="1376.0" y="1046.0" font-size="7.5" fill="#55524b">TỜ</text><text x="1376.0" y="1060.0" font-size="11" font-weight="bold" fill="#1a1a1a">4/8</text><line x1="1368.0" y1="973" x2="1368.0" y2="1093" stroke="#dcd8d0" stroke-width="0.7"/><line x1="990" y1="1033.0" x2="1557" y2="1033.0" stroke="#dcd8d0" stroke-width="0.7"/><text x="982" y="1087" text-anchor="end" font-size="9" fill="#55524b">Ngày 30-08-2026 · đơn vị mm · góc chiếu thứ nhất</text></svg>